# xmcd CD database file
#
# Track frame offsets:
#	150
#	13790
#	28995
#	43102
#	55355
#	77172
#	90497
#	107377
#	121592
#	136685
#	148507
#
# Disc length: 2072 seconds
#
# Revision: 1
# Processed by: cddbd v1.5.2PL0 Copyright (c) Steve Scherf et al.
# Submitted via: CDex 1.70beta2
#
DISCID=8708160b
DTITLE=Scott Hoyt - Lay Your Love On Me
DYEAR=1994
DGENRE=Country
TTITLE0=Wild, Wild Women
TTITLE1=I'm Still Not Over You
TTITLE2=Don't Lead Me On
TTITLE3=Love Is Love
TTITLE4=Lies
TTITLE5=Faithless One
TTITLE6=Lay Your Love On Me
TTITLE7=Achin' Arms
TTITLE8=Autumn Brings You Back To Me
TTITLE9=You're The One
TTITLE10=See The Light
EXTD=YEAR: 1994
EXTT0=
EXTT1=
EXTT2=
EXTT3=
EXTT4=
EXTT5=
EXTT6=
EXTT7=
EXTT8=
EXTT9=
EXTT10=
PLAYORDER=
